<svg xmlns="http://www.w3.org/2000/svg" width="20" height="20" viewBox="0 0 20 20">
  <path fill="#31373D" fill-rule="evenodd" d="M12.3467,15.521 C13.0457,14.361 13.7377,12.809 13.9357,11 L15.9097,11 C15.5657,13.038 14.1967,14.732 12.3467,15.521 L12.3467,15.521 Z M4.0897,11 L6.0647,11 C6.2627,12.809 6.9537,14.361 7.6537,15.521 C5.8037,14.732 4.4347,13.038 4.0897,11 L4.0897,11 Z M7.6537,4.479 C6.9537,5.639 6.2627,7.191 6.0647,9 L4.0897,9 C4.4347,6.962 5.8037,5.268 7.6537,4.479 L7.6537,4.479 Z M8.0767,9 C8.3457,7.084 9.3157,5.48 10.0017,4.557 C10.6887,5.477 11.6567,7.076 11.9237,9 L8.0767,9 Z M9.9977,15.443 C9.3117,14.524 8.3437,12.924 8.0757,11 L11.9227,11 C11.6537,12.916 10.6837,14.521 9.9977,15.443 L9.9977,15.443 Z M15.9097,9 L13.9357,9 C13.7377,7.191 13.0457,5.639 12.3467,4.479 C14.1967,5.268 15.5657,6.962 15.9097,9 L15.9097,9 Z M9.9997,2 C5.5887,2 1.9997,5.589 1.9997,10 C1.9997,14.411 5.5887,18 9.9997,18 C14.4107,18 17.9997,14.411 17.9997,10 C17.9997,5.589 14.4107,2 9.9997,2 L9.9997,2 Z"/>
</svg>
