<svg xmlns="http://www.w3.org/2000/svg" width="20" height="20" viewBox="0 0 20 20">
  <path fill="#637381" d="M1.96663487,7.40212942 L0.624037721,9.41602515 C0.394273376,9.76067166 -0.0713786307,9.85380207 -0.416025147,9.62403772 C-0.760671664,9.39427338 -0.853802065,8.92862137 -0.624037721,8.58397485 L1.37596228,5.58397485 C1.68137218,5.12586001 2.35984578,5.14200499 2.64311969,5.61412818 L4.84347778,9.28139166 L7.29775312,2.73665742 C7.54238342,2.08430995 8.46675015,2.08893167 8.70484507,2.7436927 L11.9143344,11.5697884 L15.278857,-0.206040846 C15.4814353,-0.915064732 16.4783274,-0.936726068 16.7115125,-0.237170825 L18.7115125,5.76282918 C18.8424983,6.15578666 18.6301283,6.58052664 18.2371708,6.71151247 C17.8442133,6.8424983 17.4194734,6.63012831 17.2884875,6.23717082 L16.0551281,2.53709269 L12.721143,14.2060408 C12.5214154,14.9050873 11.5436087,14.9395552 11.2951549,14.2563073 L7.98917595,5.16486508 L5.70224688,11.2633426 C5.48181631,11.8511574 4.67987382,11.9241943 4.35688031,11.3858718 L1.96663487,7.40212942 Z" transform="translate(1 3)"/>
</svg>
