<svg xmlns="http://www.w3.org/2000/svg" viewBox="0 0 24 34"><g fill="none" fill-rule="evenodd"><path fill="#3268DB" d="M3.348 17.188l-3.33-3.33 2.43-2.43 3.33 3.33 2.923-2.923 2.422 2.422-8.509 8.508-2.421-2.421 3.155-3.156zm17.653-.202l3.33 3.33-2.43 2.431-3.331-3.33-2.923 2.923-2.421-2.422 8.508-8.509 2.422 2.422-3.155 3.155zM6.783 20.502L15.28 29l2.46-2.46-8.498-8.497-2.46 2.46zm0 6.07L9.21 29l2.088-2.088-2.428-2.428-2.087 2.088zM8.952 5.173l8.625 8.626-2.509 2.509-8.625-8.626 2.509-2.509zm6.843.255l2.464 2.465-2.13 2.13-2.464-2.465 2.13-2.13z"/></g></svg>
