<svg xmlns="http://www.w3.org/2000/svg" viewBox="0 0 128 34"><g fill="none" fill-rule="evenodd"><path fill="#FFFFFF" d="M37.277 23.803c-.87 0-1.732-.226-2.585-.677v3.84c0 .754-.134 1.28-.402 1.582-.268.301-.728.452-1.38.452h-1.281l-.15-.176V11.151l.15-.176h.929c.887 0 1.506.41 1.857 1.23.954-.954 2.11-1.43 3.465-1.43 1.372 0 2.435.58 3.188 1.744.753 1.163 1.13 2.757 1.13 4.782 0 1.004-.13 1.908-.39 2.712-.259.803-.61 1.485-1.054 2.046-.443.56-.962.991-1.556 1.292a4.187 4.187 0 0 1-1.92.452zm-.3-10.368c-.905 0-1.666.435-2.285 1.306v5.824c.736.485 1.406.728 2.008.728.703 0 1.239-.356 1.607-1.067.368-.711.552-1.711.552-3 0-1.306-.176-2.264-.527-2.875-.352-.61-.804-.916-1.356-.916zm6.986-.803c.067-.301.205-.62.414-.954.21-.335.423-.586.64-.753 1.356.167 2.285.92 2.787 2.26.636-1.49 1.699-2.235 3.188-2.235.553 0 1.055.058 1.507.176 0 1.171-.268 2.192-.804 3.062-.25-.083-.636-.142-1.155-.175-.97 0-1.757.518-2.36 1.556v8.008a9.858 9.858 0 0 1-1.619.126c-.577 0-1.134-.042-1.67-.126v-8.36c0-1.188-.309-2.05-.928-2.585zm18.36-.452c1.187 1.188 1.782 2.912 1.782 5.171 0 1.005-.126 1.913-.377 2.724-.251.812-.615 1.502-1.092 2.071a4.796 4.796 0 0 1-1.77 1.318c-.703.31-1.498.465-2.385.465-.887 0-1.678-.155-2.372-.465a4.82 4.82 0 0 1-1.758-1.318c-.477-.569-.84-1.259-1.092-2.07-.25-.812-.376-1.72-.376-2.725 0-2.025.485-3.627 1.456-4.807.97-1.18 2.351-1.77 4.142-1.77 1.573 0 2.854.469 3.841 1.406zm-3.842 1.054c-1.49 0-2.234 1.373-2.234 4.117 0 2.729.745 4.093 2.234 4.093 1.506 0 2.26-1.364 2.26-4.093 0-2.744-.754-4.117-2.26-4.117zm13.89 10.57c-.87 0-1.731-.227-2.585-.678v3.84c0 .754-.134 1.28-.402 1.582-.268.301-.728.452-1.38.452h-1.28l-.151-.176V11.151l.15-.176h.93c.886 0 1.505.41 1.857 1.23.954-.954 2.109-1.43 3.464-1.43 1.373 0 2.435.58 3.189 1.744.753 1.163 1.13 2.757 1.13 4.782 0 1.004-.13 1.908-.39 2.712-.26.803-.61 1.485-1.054 2.046-.444.56-.963.991-1.557 1.292a4.187 4.187 0 0 1-1.92.452zm-.3-10.369c-.904 0-1.666.435-2.285 1.306v5.824c.736.485 1.406.728 2.008.728.703 0 1.239-.356 1.607-1.067.368-.711.552-1.711.552-3 0-1.306-.175-2.264-.527-2.875-.351-.61-.803-.916-1.356-.916zm8.342 10.142V13.435l-2.16.025a3.8 3.8 0 0 1-.1-.602 6.52 6.52 0 0 1 0-1.142c.017-.193.05-.398.1-.616l2.01.026c-.101-.87-.151-1.523-.151-1.959 0-.602.1-1.159.3-1.67.202-.51.486-.949.854-1.317A4.035 4.035 0 0 1 84.18 5c1.188 0 2.393.218 3.615.653 0 .92-.243 1.648-.728 2.184-.938-.234-1.624-.352-2.059-.352-1.171 0-1.757.636-1.757 1.908 0 .57.05 1.155.15 1.758l3.415-.05c.033.217.062.422.087.614a4.365 4.365 0 0 1 0 1.143c-.025.2-.054.401-.087.602l-3.189-.05v10.167a7.47 7.47 0 0 1-.816.1 12.281 12.281 0 0 1-1.581 0 7.47 7.47 0 0 1-.816-.1zm13.268-2.41h.778a3.7 3.7 0 0 1 .276 1.356c0 .435-.025.753-.075.954-1.02.15-1.832.226-2.435.226-.97 0-1.682-.247-2.134-.74-.452-.494-.678-1.268-.678-2.323V5.276l.176-.176h1.255c.653 0 1.113.155 1.381.465.268.31.402.832.402 1.569v12.879c0 .77.351 1.154 1.054 1.154zm11.606-8.987c1.188 1.188 1.782 2.912 1.782 5.171 0 1.005-.125 1.913-.376 2.724-.251.812-.615 1.502-1.092 2.071a4.796 4.796 0 0 1-1.77 1.318c-.703.31-1.498.465-2.385.465-.887 0-1.678-.155-2.373-.465a4.82 4.82 0 0 1-1.757-1.318c-.477-.569-.841-1.259-1.092-2.07-.251-.812-.377-1.72-.377-2.725 0-2.025.486-3.627 1.456-4.807.971-1.18 2.352-1.77 4.143-1.77 1.573 0 2.853.469 3.84 1.406zm-3.841 1.054c-1.49 0-2.235 1.373-2.235 4.117 0 2.729.745 4.093 2.235 4.093 1.506 0 2.26-1.364 2.26-4.093 0-2.744-.754-4.117-2.26-4.117zm8.756 8.837l-2.51-10.77c.652-.268 1.242-.401 1.77-.401.527 0 .912.113 1.154.338.243.226.406.574.49 1.042l.954 4.62c.334 1.64.577 2.987.728 4.041.033.134.1.201.2.201l1.733-9.941c.519-.1 1.171-.15 1.958-.15.787 0 1.423.05 1.908.15l1.732 9.74c.017.134.084.201.201.201.301-1.74.56-3.155.778-4.242l1.255-5.774c.352-.1.85-.151 1.494-.151.645 0 1.15.092 1.519.276l.1.2-3.012 12.126c-.552.084-1.268.126-2.147.126-.878 0-1.477-.1-1.795-.301-.318-.201-.527-.628-.627-1.28l-.552-3.089a179.651 179.651 0 0 1-.804-4.97h-.15c-.118.87-.394 2.519-.829 4.945l-.853 4.57c-.586.083-1.314.125-2.185.125-.87 0-1.468-.109-1.795-.326-.326-.218-.564-.653-.715-1.306z"/><path fill="#3268DB" d="M3.348 17.188l-3.33-3.33 2.43-2.43 3.33 3.33 2.923-2.923 2.422 2.422-8.509 8.508-2.421-2.421 3.155-3.156zm17.653-.202l3.33 3.33-2.43 2.431-3.331-3.33-2.923 2.923-2.421-2.422 8.508-8.509 2.422 2.422-3.155 3.155zM6.783 20.502L15.28 29l2.46-2.46-8.498-8.497-2.46 2.46zm0 6.07L9.21 29l2.088-2.088-2.428-2.428-2.087 2.088zM8.952 5.173l8.625 8.626-2.509 2.509-8.625-8.626 2.509-2.509zm6.843.255l2.464 2.465-2.13 2.13-2.464-2.465 2.13-2.13z"/></g></svg>
