<svg xmlns="http://www.w3.org/2000/svg" width="20" height="20" viewBox="0 0 20 20">
  <g fill="none" fill-rule="evenodd">
    <path fill="#637381" fill-opacity=".25" stroke="#637381" stroke-width="1.5" d="M1.21352549,4.25 L18.7864745,4.25 L17.0364745,0.75 L2.96352549,0.75 L1.21352549,4.25 Z"/>
    <path fill="#FFF" stroke="#637381" stroke-width="1.5" d="M6.73921898,7.75 C6.15213014,8.66852705 5.129288,9.25 4,9.25 C3.56238225,9.25 3.13901285,9.16275304 2.75,9.00069136 L2.75,18 C2.75,18.6903559 3.30964406,19.25 4,19.25 L16,19.25 C16.6903559,19.25 17.25,18.6903559 17.25,18 L17.25,9.00069136 C16.8609872,9.16275304 16.4376178,9.25 16,9.25 C14.870712,9.25 13.8478699,8.66852705 13.260781,7.75 L12.739219,7.75 C12.1521301,8.66852705 11.129288,9.25 10,9.25 C8.870712,9.25 7.84786986,8.66852705 7.26078102,7.75 L6.73921898,7.75 Z M2.00178349,4.25 L2.75,4.49975627 L2.75,4.25 L5.25,4.25 L5.25,4.49975627 L5.99821651,4.25 L6,4.25 L5.99955366,4.24955366 L6.5996201,4.04925019 C5.99002428,3.23788287 5.03485037,2.75 4,2.75 C2.96514963,2.75 2.00997572,3.23788287 1.4003799,4.04925019 L2.00044634,4.24955366 L2,4.25 L2.00178349,4.25 Z M14.75,4.25 L17.25,4.25 L17.25,4.49975627 L17.9982165,4.25 L18,4.25 L17.9995537,4.24955366 L18.5996201,4.04925019 C17.9900243,3.23788287 17.0348504,2.75 16,2.75 C14.9651496,2.75 14.0099757,3.23788287 13.4003799,4.04925019 L14.0004463,4.24955366 L14,4.25 L14.0017835,4.25 L14.75,4.49975627 L14.75,4.25 Z"/>
    <path fill="#637381" fill-opacity=".25" stroke="#637381" stroke-width="1.5" d="M1.26073166 4.25C.929894886 4.76630437.75 5.36868099.75 6 .75 7.79492544 2.20507456 9.25 4 9.25 4.9455426 9.25 5.82389436 8.84495665 6.43769562 8.1495243L7 7.51243754 7.56230438 8.1495243C8.17610564 8.84495665 9.0544574 9.25 10 9.25 10.9455426 9.25 11.8238944 8.84495665 12.4376956 8.1495243L13 7.51243754 13.5623044 8.1495243C14.1761056 8.84495665 15.0544574 9.25 16 9.25 17.7949254 9.25 19.25 7.79492544 19.25 6 19.25 5.36868099 19.0701051 4.76630437 18.7392683 4.25L1.26073166 4.25zM6.75 19.25L13.25 19.25 13.25 14C13.25 13.3096441 12.6903559 12.75 12 12.75L8 12.75C7.30964406 12.75 6.75 13.3096441 6.75 14L6.75 19.25z"/>
  </g>
</svg>
